<svg width="450" height="275" viewBox="0 0 450 275" fill="none" xmlns="http://www.w3.org/2000/svg">
<path d="M32.9846 115.42L98.4934 4.99114H137.175L81.0244 100.447H104.767L139.22 42.4247H175.652L127.193 126.65C117.21 144.119 98.4934 144.119 90.3828 144.119H54.8209C29.8651 144.119 26.1218 127.274 32.9846 115.42Z" fill="#00B45C"/>
<path d="M186.462 144.119H150.277L215.678 32.4424H193.218L208.922 4.99114H312.263L295.53 32.4424H252.481L186.462 144.119Z" fill="#00B45C"/>
<path d="M285.819 51.1592H257.49L235.277 88.5928H263.606L285.819 51.1592Z" fill="#00B45C"/>
<path d="M307.498 98.5751L313.113 121.035L380.552 4.99114H418.448L337.444 144.119H284.524L273.183 98.5751H307.498Z" fill="#00B45C"/>
<path fill-rule="evenodd" clip-rule="evenodd" d="M95.6511 0H145.902L89.7512 95.4557H101.926L136.379 37.4336H184.283L131.526 129.127C131.525 129.129 131.523 129.131 131.522 129.134C120.097 149.119 98.7371 149.113 90.6407 149.111C90.5532 149.111 90.4673 149.11 90.383 149.11H54.8211C41.2858 149.11 32.0137 144.483 27.6192 136.659C23.3366 129.034 24.6026 119.937 28.6653 112.92L28.6786 112.897L95.6511 0ZM127.193 126.65L175.653 42.4247H139.22L104.767 100.447H81.0246L137.175 4.99115H98.4936L32.9848 115.42C26.122 127.274 29.8653 144.119 54.8211 144.119H90.383C98.4936 144.119 117.21 144.119 127.193 126.65ZM141.57 149.11L206.972 37.4336H184.613L206.028 0H321.15L298.333 37.4336H255.329L189.31 149.11H141.57ZM252.481 32.4424H295.53L312.263 4.99115H208.923L193.218 32.4424H215.679L150.277 144.119H186.463L252.481 32.4424ZM254.648 46.1681H294.585L266.448 93.584H226.511L254.648 46.1681ZM307.498 98.5751L313.113 121.035L380.552 4.99115H418.448L337.445 144.119H284.524L273.184 98.5751H307.498ZM314.974 107.9L377.68 0H427.13L340.314 149.11H280.623L266.797 93.584H311.395L314.974 107.9ZM257.49 51.1592H285.819L263.606 88.5928H235.277L257.49 51.1592Z" fill="#BABAB8"/>
<path d="M0 190.832H5.22175V208.523C5.22175 210.047 5.35183 211.125 5.61199 211.757C5.88454 212.388 6.32433 212.896 6.93137 213.28C7.55079 213.652 8.2941 213.838 9.1613 213.838C10.078 213.838 10.8647 213.627 11.5213 213.206C12.1903 212.785 12.6487 212.252 12.8964 211.608C13.1566 210.951 13.2867 209.706 13.2867 207.873V190.832H18.5084V207.129C18.5084 209.88 18.3536 211.788 18.0439 212.853C17.7341 213.918 17.1395 214.947 16.2599 215.938C15.3927 216.929 14.3892 217.666 13.2495 218.149C12.1098 218.62 10.7842 218.855 9.27279 218.855C7.29063 218.855 5.56244 218.403 4.08821 217.499C2.62636 216.582 1.57953 215.442 0.94772 214.079C0.315907 212.704 0 210.388 0 207.129V190.832Z" fill="black"/>
<path d="M24.0089 197.95H29.0634V200.012C30.2156 199.046 31.2562 198.377 32.1853 198.005C33.1269 197.621 34.087 197.429 35.0657 197.429C37.0726 197.429 38.776 198.129 40.1759 199.529C41.3528 200.718 41.9413 202.478 41.9413 204.807V218.168H36.9239V209.304C36.9239 206.888 36.8124 205.284 36.5894 204.491C36.3788 203.698 36.001 203.097 35.4559 202.688C34.9232 202.267 34.2604 202.056 33.4675 202.056C32.4393 202.056 31.5535 202.403 30.8102 203.097C30.0793 203.778 29.5714 204.726 29.2864 205.94C29.1378 206.572 29.0634 207.941 29.0634 210.047V218.168H24.0089V197.95Z" fill="black"/>
<path d="M53.8342 197.95H59.0002L64.1105 209.88L69.2022 197.95H74.3496L65.7458 218.168H62.4566L53.8342 197.95Z" fill="black"/>
<path d="M97.5966 209.527H81.2996C81.5349 210.964 82.1606 212.11 83.1764 212.964C84.2047 213.807 85.5116 214.228 87.0974 214.228C88.9928 214.228 90.6219 213.565 91.9846 212.24L96.2587 214.247C95.1933 215.758 93.9172 216.879 92.4306 217.61C90.944 218.329 89.1786 218.688 87.1345 218.688C83.9631 218.688 81.3801 217.691 79.3855 215.696C77.391 213.689 76.3937 211.181 76.3937 208.17C76.3937 205.085 77.3848 202.527 79.3669 200.495C81.3615 198.451 83.8578 197.429 86.8558 197.429C90.0396 197.429 92.6288 198.451 94.6234 200.495C96.6179 202.527 97.6152 205.215 97.6152 208.56L97.5966 209.527ZM92.505 205.531C92.1705 204.404 91.5077 203.487 90.5166 202.781C89.5379 202.075 88.3982 201.722 87.0974 201.722C85.6851 201.722 84.4462 202.118 83.3808 202.911C82.7118 203.407 82.0924 204.28 81.5225 205.531H92.505Z" fill="black"/>
<path d="M100.533 197.95H104.881V200.495C105.352 199.492 105.977 198.73 106.758 198.21C107.538 197.689 108.393 197.429 109.322 197.429C109.979 197.429 110.666 197.603 111.385 197.95L109.805 202.317C109.211 202.019 108.722 201.871 108.337 201.871C107.557 201.871 106.894 202.354 106.349 203.32C105.816 204.286 105.55 206.182 105.55 209.006L105.569 209.991V218.168H100.533V197.95Z" fill="black"/>
<path d="M126.288 200.774L123.148 203.915C121.872 202.651 120.714 202.019 119.673 202.019C119.103 202.019 118.657 202.143 118.335 202.391C118.013 202.626 117.852 202.924 117.852 203.283C117.852 203.555 117.951 203.809 118.149 204.045C118.36 204.268 118.868 204.577 119.673 204.974L121.531 205.903C123.489 206.869 124.833 207.854 125.564 208.858C126.295 209.861 126.66 211.038 126.66 212.388C126.66 214.185 125.997 215.684 124.672 216.885C123.359 218.087 121.593 218.688 119.376 218.688C116.427 218.688 114.073 217.536 112.314 215.232L115.436 211.831C116.031 212.525 116.724 213.088 117.517 213.522C118.323 213.943 119.035 214.154 119.654 214.154C120.323 214.154 120.862 213.993 121.271 213.671C121.68 213.349 121.884 212.977 121.884 212.556C121.884 211.775 121.147 211.013 119.673 210.27L117.963 209.415C114.693 207.767 113.057 205.705 113.057 203.227C113.057 201.629 113.671 200.266 114.897 199.139C116.136 197.999 117.716 197.429 119.636 197.429C120.949 197.429 122.182 197.72 123.334 198.303C124.498 198.873 125.483 199.696 126.288 200.774Z" fill="black"/>
<path d="M154.757 190.145H159.812V218.168H154.757V216.031C153.766 216.972 152.769 217.654 151.765 218.075C150.774 218.484 149.696 218.688 148.532 218.688C145.918 218.688 143.657 217.678 141.749 215.659C139.841 213.627 138.888 211.106 138.888 208.096C138.888 204.974 139.81 202.416 141.656 200.421C143.502 198.427 145.745 197.429 148.383 197.429C149.597 197.429 150.737 197.658 151.803 198.117C152.868 198.575 153.853 199.263 154.757 200.18V190.145ZM149.424 202.112C147.851 202.112 146.544 202.67 145.503 203.785C144.462 204.887 143.942 206.306 143.942 208.04C143.942 209.787 144.469 211.224 145.522 212.351C146.587 213.479 147.894 214.042 149.443 214.042C151.041 214.042 152.366 213.491 153.419 212.388C154.472 211.273 154.999 209.818 154.999 208.021C154.999 206.262 154.472 204.838 153.419 203.747C152.366 202.657 151.034 202.112 149.424 202.112Z" fill="black"/>
<path d="M179.881 197.95H184.936V218.168H179.881V216.031C178.89 216.972 177.893 217.654 176.889 218.075C175.898 218.484 174.82 218.688 173.656 218.688C171.042 218.688 168.781 217.678 166.873 215.659C164.965 213.627 164.011 211.106 164.011 208.096C164.011 204.974 164.934 202.416 166.78 200.421C168.626 198.427 170.868 197.429 173.507 197.429C174.721 197.429 175.861 197.658 176.926 198.117C177.992 198.575 178.977 199.263 179.881 200.18V197.95ZM174.548 202.112C172.974 202.112 171.667 202.67 170.627 203.785C169.586 204.887 169.066 206.306 169.066 208.04C169.066 209.787 169.592 211.224 170.645 212.351C171.711 213.479 173.018 214.042 174.566 214.042C176.165 214.042 177.49 213.491 178.543 212.388C179.596 211.273 180.123 209.818 180.123 208.021C180.123 206.262 179.596 204.838 178.543 203.747C177.49 202.657 176.158 202.112 174.548 202.112Z" fill="black"/>
<path d="M205.005 190.145H210.059V218.168H205.005V216.031C204.014 216.972 203.017 217.654 202.013 218.075C201.022 218.484 199.944 218.688 198.78 218.688C196.166 218.688 193.905 217.678 191.997 215.659C190.089 213.627 189.135 211.106 189.135 208.096C189.135 204.974 190.058 202.416 191.904 200.421C193.75 198.427 195.992 197.429 198.631 197.429C199.845 197.429 200.985 197.658 202.05 198.117C203.116 198.575 204.101 199.263 205.005 200.18V190.145ZM199.672 202.112C198.098 202.112 196.791 202.67 195.751 203.785C194.71 204.887 194.19 206.306 194.19 208.04C194.19 209.787 194.716 211.224 195.769 212.351C196.835 213.479 198.142 214.042 199.69 214.042C201.288 214.042 202.614 213.491 203.667 212.388C204.72 211.273 205.247 209.818 205.247 208.021C205.247 206.262 204.72 204.838 203.667 203.747C202.614 202.657 201.282 202.112 199.672 202.112Z" fill="black"/>
<path d="M223.718 190.832H238.826V195.961H233.845V218.168H228.568V195.961H223.718V190.832Z" fill="black"/>
<path d="M262.091 209.527H245.794C246.029 210.964 246.655 212.11 247.671 212.964C248.699 213.807 250.006 214.228 251.592 214.228C253.487 214.228 255.116 213.565 256.479 212.24L260.753 214.247C259.688 215.758 258.412 216.879 256.925 217.61C255.439 218.329 253.673 218.688 251.629 218.688C248.458 218.688 245.875 217.691 243.88 215.696C241.886 213.689 240.888 211.181 240.888 208.17C240.888 205.085 241.879 202.527 243.861 200.495C245.856 198.451 248.352 197.429 251.35 197.429C254.534 197.429 257.123 198.451 259.118 200.495C261.112 202.527 262.11 205.215 262.11 208.56L262.091 209.527ZM256.999 205.531C256.665 204.404 256.002 203.487 255.011 202.781C254.032 202.075 252.893 201.722 251.592 201.722C250.18 201.722 248.941 202.118 247.875 202.911C247.206 203.407 246.587 204.28 246.017 205.531H256.999Z" fill="black"/>
<path d="M286.007 202.038L281.789 204.361C280.996 203.531 280.209 202.955 279.429 202.632C278.661 202.31 277.756 202.149 276.716 202.149C274.82 202.149 273.284 202.719 272.107 203.859C270.943 204.986 270.36 206.436 270.36 208.207C270.36 209.929 270.924 211.335 272.052 212.426C273.179 213.516 274.659 214.061 276.493 214.061C278.76 214.061 280.525 213.287 281.789 211.738L285.784 214.47C283.616 217.282 280.556 218.688 276.604 218.688C273.049 218.688 270.261 217.635 268.242 215.529C266.235 213.423 265.232 210.958 265.232 208.133C265.232 206.176 265.721 204.373 266.7 202.725C267.678 201.078 269.041 199.783 270.788 198.842C272.547 197.9 274.511 197.429 276.679 197.429C278.686 197.429 280.488 197.832 282.086 198.637C283.684 199.43 284.991 200.564 286.007 202.038Z" fill="black"/>
<path d="M290.597 197.95H295.652V200.012C296.804 199.046 297.844 198.377 298.774 198.005C299.715 197.621 300.675 197.429 301.654 197.429C303.661 197.429 305.364 198.129 306.764 199.529C307.941 200.718 308.529 202.478 308.529 204.807V218.168H303.512V209.304C303.512 206.888 303.401 205.284 303.178 204.491C302.967 203.698 302.589 203.097 302.044 202.688C301.511 202.267 300.849 202.056 300.056 202.056C299.027 202.056 298.142 202.403 297.398 203.097C296.667 203.778 296.16 204.726 295.875 205.94C295.726 206.572 295.652 207.941 295.652 210.047V218.168H290.597V197.95Z" fill="black"/>
<path d="M322.95 197.429C324.858 197.429 326.648 197.906 328.32 198.86C330.005 199.814 331.318 201.109 332.26 202.744C333.201 204.379 333.672 206.145 333.672 208.04C333.672 209.948 333.195 211.732 332.241 213.392C331.3 215.052 330.011 216.353 328.376 217.294C326.741 218.223 324.938 218.688 322.968 218.688C320.069 218.688 317.592 217.66 315.535 215.603C313.491 213.534 312.469 211.026 312.469 208.077C312.469 204.918 313.627 202.286 315.944 200.18C317.976 198.346 320.311 197.429 322.95 197.429ZM323.024 202.205C321.451 202.205 320.138 202.756 319.084 203.859C318.044 204.949 317.524 206.349 317.524 208.059C317.524 209.818 318.038 211.242 319.066 212.333C320.107 213.423 321.42 213.968 323.005 213.968C324.591 213.968 325.911 213.417 326.964 212.314C328.017 211.211 328.543 209.793 328.543 208.059C328.543 206.324 328.023 204.918 326.982 203.84C325.954 202.75 324.635 202.205 323.024 202.205Z" fill="black"/>
<path d="M337.296 190.145H342.369V218.168H337.296V190.145Z" fill="black"/>
<path d="M356.473 197.429C358.381 197.429 360.171 197.906 361.843 198.86C363.528 199.814 364.841 201.109 365.783 202.744C366.724 204.379 367.195 206.145 367.195 208.04C367.195 209.948 366.718 211.732 365.764 213.392C364.823 215.052 363.534 216.353 361.899 217.294C360.264 218.223 358.461 218.688 356.492 218.688C353.593 218.688 351.115 217.66 349.058 215.603C347.014 213.534 345.992 211.026 345.992 208.077C345.992 204.918 347.151 202.286 349.467 200.18C351.499 198.346 353.834 197.429 356.473 197.429ZM356.547 202.205C354.974 202.205 353.661 202.756 352.608 203.859C351.567 204.949 351.047 206.349 351.047 208.059C351.047 209.818 351.561 211.242 352.589 212.333C353.63 213.423 354.943 213.968 356.529 213.968C358.114 213.968 359.434 213.417 360.487 212.314C361.54 211.211 362.066 209.793 362.066 208.059C362.066 206.324 361.546 204.918 360.505 203.84C359.477 202.75 358.158 202.205 356.547 202.205ZM357.476 186.967H363.479L356.677 194.252H353.035L357.476 186.967Z" fill="black"/>
<path d="M386.298 197.95H391.353V215.269C391.353 218.688 390.665 221.203 389.29 222.813C387.444 224.994 384.663 226.084 380.946 226.084C378.964 226.084 377.298 225.836 375.948 225.341C374.597 224.845 373.458 224.114 372.528 223.148C371.599 222.194 370.912 221.029 370.466 219.654H376.059C376.555 220.224 377.193 220.652 377.973 220.936C378.754 221.234 379.677 221.382 380.742 221.382C382.105 221.382 383.201 221.172 384.031 220.751C384.861 220.329 385.443 219.784 385.778 219.115C386.125 218.446 386.298 217.294 386.298 215.659C385.406 216.551 384.471 217.195 383.492 217.592C382.514 217.976 381.405 218.168 380.166 218.168C377.453 218.168 375.161 217.189 373.29 215.232C371.42 213.274 370.484 210.796 370.484 207.798C370.484 204.59 371.475 202.013 373.458 200.068C375.254 198.309 377.397 197.429 379.887 197.429C381.052 197.429 382.148 197.646 383.176 198.08C384.217 198.501 385.258 199.201 386.298 200.18V197.95ZM381.039 202.168C379.441 202.168 378.122 202.707 377.081 203.785C376.041 204.85 375.52 206.194 375.52 207.817C375.52 209.502 376.053 210.883 377.118 211.961C378.184 213.039 379.522 213.578 381.132 213.578C382.706 213.578 384 213.051 385.016 211.998C386.044 210.945 386.558 209.564 386.558 207.854C386.558 206.169 386.044 204.8 385.016 203.747C383.988 202.694 382.662 202.168 381.039 202.168Z" fill="black"/>
<path d="M425.415 202.038L421.197 204.361C420.404 203.531 419.617 202.955 418.837 202.632C418.069 202.31 417.164 202.149 416.124 202.149C414.228 202.149 412.692 202.719 411.515 203.859C410.351 204.986 409.768 206.436 409.768 208.207C409.768 209.929 410.332 211.335 411.459 212.426C412.587 213.516 414.067 214.061 415.901 214.061C418.168 214.061 419.933 213.287 421.197 211.738L425.192 214.47C423.024 217.282 419.964 218.688 416.012 218.688C412.457 218.688 409.669 217.635 407.65 215.529C405.643 213.423 404.639 210.958 404.639 208.133C404.639 206.176 405.129 204.373 406.108 202.725C407.086 201.078 408.449 199.783 410.196 198.842C411.955 197.9 413.918 197.429 416.086 197.429C418.093 197.429 419.896 197.832 421.494 198.637C423.092 199.43 424.399 200.564 425.415 202.038Z" fill="black"/>
<path d="M444.945 197.95H450V218.168H444.945V216.031C443.954 216.972 442.957 217.654 441.954 218.075C440.963 218.484 439.885 218.688 438.72 218.688C436.106 218.688 433.845 217.678 431.938 215.659C430.03 213.627 429.076 211.106 429.076 208.096C429.076 204.974 429.999 202.416 431.845 200.421C433.691 198.427 435.933 197.429 438.572 197.429C439.786 197.429 440.925 197.658 441.991 198.117C443.056 198.575 444.041 199.263 444.945 200.18V197.95ZM439.612 202.112C438.039 202.112 436.732 202.67 435.691 203.785C434.651 204.887 434.13 206.306 434.13 208.04C434.13 209.787 434.657 211.224 435.71 212.351C436.775 213.479 438.082 214.042 439.631 214.042C441.229 214.042 442.554 213.491 443.608 212.388C444.661 211.273 445.187 209.818 445.187 208.021C445.187 206.262 444.661 204.838 443.608 203.747C442.554 202.657 441.223 202.112 439.612 202.112Z" fill="black"/>
<path fill-rule="evenodd" clip-rule="evenodd" d="M51.3999 218.168V197.95H46.3082V218.168H51.3999Z" fill="black"/>
<path d="M46.3082 190.572V195.237H51.3999V190.572H46.3082Z" fill="black"/>
<path fill-rule="evenodd" clip-rule="evenodd" d="M135.208 218.168V197.95H130.116V218.168H135.208Z" fill="black"/>
<path d="M130.116 190.619V195.283H135.208V190.619H130.116Z" fill="black"/>
<path fill-rule="evenodd" clip-rule="evenodd" d="M401.016 218.168V197.95H395.924V218.168H401.016Z" fill="black"/>
<path d="M395.924 190.591V195.255H401.016V190.591H395.924Z" fill="black"/>
<path d="M83.8618 239.691H97.4273V244.764H89.0093V249.726H97.4273V254.724H89.0093V267.026H83.8618V239.691Z" fill="black"/>
<path d="M125.599 239.003H130.653V267.026H125.599V264.889C124.608 265.831 123.61 266.512 122.607 266.933C121.616 267.342 120.538 267.547 119.373 267.547C116.76 267.547 114.499 266.537 112.591 264.518C110.683 262.486 109.729 259.965 109.729 256.954C109.729 253.833 110.652 251.274 112.498 249.28C114.344 247.285 116.586 246.288 119.225 246.288C120.439 246.288 121.579 246.517 122.644 246.975C123.709 247.434 124.694 248.121 125.599 249.038V239.003ZM120.265 250.971C118.692 250.971 117.385 251.528 116.344 252.643C115.304 253.746 114.784 255.164 114.784 256.899C114.784 258.645 115.31 260.083 116.363 261.21C117.428 262.337 118.735 262.901 120.284 262.901C121.882 262.901 123.208 262.35 124.261 261.247C125.314 260.132 125.84 258.676 125.84 256.88C125.84 255.121 125.314 253.696 124.261 252.606C123.208 251.516 121.876 250.971 120.265 250.971Z" fill="black"/>
<path d="M156.037 258.385H139.74C139.976 259.822 140.601 260.968 141.617 261.823C142.645 262.666 143.952 263.087 145.538 263.087C147.433 263.087 149.063 262.424 150.425 261.098L154.699 263.105C153.634 264.617 152.358 265.738 150.871 266.469C149.385 267.187 147.619 267.547 145.575 267.547C142.404 267.547 139.821 266.549 137.826 264.555C135.832 262.548 134.834 260.039 134.834 257.029C134.834 253.944 135.825 251.386 137.808 249.354C139.802 247.31 142.298 246.288 145.296 246.288C148.48 246.288 151.069 247.31 153.064 249.354C155.059 251.386 156.056 254.074 156.056 257.419L156.037 258.385ZM150.946 254.39C150.611 253.263 149.948 252.346 148.957 251.64C147.979 250.934 146.839 250.581 145.538 250.581C144.126 250.581 142.887 250.977 141.821 251.77C141.152 252.265 140.533 253.139 139.963 254.39H150.946Z" fill="black"/>
<path d="M159.624 239.003H164.697V267.026H159.624V239.003Z" fill="black"/>
<path d="M178.448 239.691H183.8L190.676 259.11L197.644 239.691H202.996L193.147 267.026H188.13L178.448 239.691Z" fill="black"/>
<path d="M226.875 258.385H210.578C210.813 259.822 211.439 260.968 212.455 261.823C213.483 262.666 214.79 263.087 216.375 263.087C218.271 263.087 219.9 262.424 221.263 261.098L225.537 263.105C224.471 264.617 223.195 265.738 221.709 266.469C220.222 267.187 218.457 267.547 216.413 267.547C213.241 267.547 210.658 266.549 208.664 264.555C206.669 262.548 205.672 260.039 205.672 257.029C205.672 253.944 206.663 251.386 208.645 249.354C210.64 247.31 213.136 246.288 216.134 246.288C219.318 246.288 221.907 247.31 223.901 249.354C225.896 251.386 226.893 254.074 226.893 257.419L226.875 258.385ZM221.783 254.39C221.449 253.263 220.786 252.346 219.795 251.64C218.816 250.934 217.676 250.581 216.375 250.581C214.963 250.581 213.724 250.977 212.659 251.77C211.99 252.265 211.371 253.139 210.801 254.39H221.783Z" fill="black"/>
<path d="M230.461 239.003H235.534V267.026H230.461V239.003Z" fill="black"/>
<path d="M255.083 246.808H260.138V267.026H255.083V264.889C254.092 265.831 253.095 266.512 252.092 266.933C251.1 267.342 250.023 267.547 248.858 267.547C246.244 267.547 243.983 266.537 242.075 264.518C240.168 262.486 239.214 259.965 239.214 256.954C239.214 253.833 240.137 251.274 241.982 249.28C243.828 247.285 246.071 246.288 248.709 246.288C249.924 246.288 251.063 246.517 252.129 246.975C253.194 247.434 254.179 248.121 255.083 249.038V246.808ZM249.75 250.971C248.177 250.971 246.87 251.528 245.829 252.643C244.788 253.746 244.268 255.164 244.268 256.899C244.268 258.645 244.795 260.083 245.848 261.21C246.913 262.337 248.22 262.901 249.769 262.901C251.367 262.901 252.692 262.35 253.745 261.247C254.798 260.132 255.325 258.676 255.325 256.88C255.325 255.121 254.798 253.696 253.745 252.606C252.692 251.516 251.361 250.971 249.75 250.971ZM251.032 235.826H257.035L250.233 243.11H246.591L251.032 235.826Z" fill="black"/>
<path d="M264.393 246.808H279.91L270.804 262.734H279.39V267.026H263L272.142 251.101H264.393V246.808Z" fill="black"/>
<path d="M297.712 246.808H302.767V274.422H297.712V264.889C296.721 265.831 295.724 266.512 294.72 266.933C293.729 267.342 292.651 267.547 291.487 267.547C288.873 267.547 286.612 266.537 284.704 264.518C282.796 262.486 281.843 259.965 281.843 256.954C281.843 253.833 282.765 251.274 284.611 249.28C286.457 247.285 288.7 246.288 291.338 246.288C292.552 246.288 293.692 246.517 294.758 246.975C295.823 247.434 296.808 248.121 297.712 249.038V246.808ZM292.379 250.971C290.806 250.971 289.499 251.528 288.458 252.643C287.417 253.746 286.897 255.164 286.897 256.899C286.897 258.645 287.424 260.083 288.477 261.21C289.542 262.337 290.849 262.901 292.398 262.901C293.996 262.901 295.321 262.35 296.374 261.247C297.427 260.132 297.954 258.676 297.954 256.88C297.954 255.121 297.427 253.696 296.374 252.606C295.321 251.516 293.989 250.971 292.379 250.971Z" fill="black"/>
<path d="M307.877 246.808H313.006V256.546C313.006 258.441 313.136 259.76 313.396 260.504C313.656 261.235 314.071 261.805 314.641 262.213C315.223 262.622 315.936 262.827 316.778 262.827C317.621 262.827 318.333 262.628 318.915 262.232C319.51 261.823 319.95 261.228 320.234 260.448C320.445 259.866 320.55 258.621 320.55 256.713V246.808H325.642V255.375C325.642 258.906 325.363 261.321 324.806 262.622C324.124 264.208 323.121 265.428 321.795 266.283C320.47 267.125 318.785 267.547 316.741 267.547C314.523 267.547 312.727 267.051 311.352 266.06C309.989 265.069 309.029 263.688 308.472 261.916C308.075 260.69 307.877 258.46 307.877 255.226V246.808Z" fill="black"/>
<path d="M351.008 258.385H334.71C334.946 259.822 335.571 260.968 336.587 261.823C337.616 262.666 338.923 263.087 340.508 263.087C342.404 263.087 344.033 262.424 345.396 261.098L349.67 263.105C348.604 264.617 347.328 265.738 345.842 266.469C344.355 267.187 342.59 267.547 340.545 267.547C337.374 267.547 334.791 266.549 332.796 264.555C330.802 262.548 329.805 260.039 329.805 257.029C329.805 253.944 330.796 251.386 332.778 249.354C334.772 247.31 337.269 246.288 340.267 246.288C343.451 246.288 346.04 247.31 348.034 249.354C350.029 251.386 351.026 254.074 351.026 257.419L351.008 258.385ZM345.916 254.39C345.581 253.263 344.919 252.346 343.927 251.64C342.949 250.934 341.809 250.581 340.508 250.581C339.096 250.581 337.857 250.977 336.792 251.77C336.123 252.265 335.503 253.139 334.933 254.39H345.916Z" fill="black"/>
<path d="M354.26 246.808H369.776L360.671 262.734H369.256V267.026H352.866L362.009 251.101H354.26V246.808Z" fill="black"/>
<path fill-rule="evenodd" clip-rule="evenodd" d="M106.05 267.026V246.808H100.958V267.026H106.05Z" fill="black"/>
<path d="M46.3082 190.572V195.237H51.3999V190.572H46.3082Z" fill="black"/>
<path d="M100.958 239.431V244.095H106.05V239.431H100.958Z" fill="black"/>
</svg>
